<?xml version="1.0" encoding="utf-8"?>
<!-- Generator: Adobe Illustrator 24.0.0, SVG Export Plug-In . SVG Version: 6.00 Build 0)  -->
<svg version="1.1" id="Layer_1" xmlns="http://www.w3.org/2000/svg" xmlns:xlink="http://www.w3.org/1999/xlink" x="0px" y="0px"
	 viewBox="0 0 91.7 85.4" style="enable-background:new 0 0 91.7 85.4;" xml:space="preserve">
<style type="text/css">
	.st0{fill:#50C3E0;}
	.st1{fill:#371450;}
	.st2{fill:#8ED6E9;}
</style>
<title>favicon</title>
<polygon class="st0" points="91.7,39.9 77,39.9 62.4,12.8 33,12.8 14.7,39.9 0,39.9 22.9,0 69.7,0 "/>
<polygon class="st1" points="91.7,45.6 77,45.6 62.4,72.7 33,72.7 14.7,45.6 0,45.6 22.9,85.4 69.7,85.4 "/>
<path class="st2" d="M56.3,43c-1.2-0.3-2.4-0.9-3.3-1.7c-0.7-0.6-1.2-1.3-1.6-2.1c-0.3-0.7-0.5-1.5-0.5-2.3c0-0.9,0.2-1.9,0.6-2.7
	c0.4-0.8,0.9-1.6,1.6-2.2l0,0c1.6-1.3,3.7-1.8,5.6-1.3c0.5,0.1,1,0.3,1.5,0.6c0.5,0.3,0.9,0.6,1.3,1c0.4,0.4,0.8,0.9,1.1,1.4
	c0.2,0.3,0.2,0.6,0.2,0.9c0,0.2,0,0.4-0.1,0.6c-0.1,0.2-0.2,0.4-0.3,0.5c-0.1,0.1-0.3,0.3-0.5,0.3c-0.2,0.1-0.4,0.1-0.6,0.1
	c-0.2,0-0.4,0-0.5-0.1c-0.2-0.1-0.3-0.1-0.4-0.3c-0.1-0.1-0.3-0.2-0.4-0.4c-0.1-0.2-0.3-0.3-0.4-0.5c-0.2-0.4-0.6-0.6-1-0.8
	c-0.4-0.2-0.9-0.3-1.4-0.3c-0.4,0-0.7,0.1-1.1,0.2c-0.4,0.2-0.7,0.4-1,0.7c-0.3,0.3-0.5,0.6-0.7,1c-0.2,0.4-0.3,0.8-0.3,1.2
	c0,0.7,0.2,1.3,0.7,1.8c0.6,0.6,1.4,0.9,2.2,1.1c1.6,0.4,3,1.1,4.3,2.2c0.9,0.7,1.6,1.6,2.1,2.6c0.4,0.9,0.6,1.8,0.5,2.7
	c0.1,2.2-0.9,4.4-2.6,5.8l0,0c-1.3,1.2-3,1.8-4.8,1.8c-0.6,0-1.2-0.1-1.8-0.2c-0.6-0.2-1.2-0.4-1.7-0.7c-0.6-0.3-1.1-0.7-1.5-1.1
	c-0.5-0.4-0.9-0.9-1.2-1.5c-0.2-0.3-0.3-0.6-0.3-1c0-0.2,0-0.4,0.1-0.6c0.1-0.2,0.2-0.4,0.3-0.5c0.1-0.1,0.3-0.3,0.5-0.3
	c0.2-0.1,0.4-0.1,0.6-0.1c0.6,0,1.1,0.3,1.4,0.7c0.4,0.6,0.9,1.1,1.6,1.5c0.6,0.3,1.4,0.5,2.1,0.5c0.6,0,1.1-0.1,1.6-0.3
	c0.5-0.2,1-0.5,1.3-0.9c0.4-0.4,0.7-0.9,0.9-1.4c0.2-0.5,0.3-1.1,0.3-1.7c0-1.2-0.6-2.3-1.5-3C58.3,43.7,57.3,43.3,56.3,43z
	 M30.9,53.9c-0.2,0.6-0.8,1-1.5,1c-0.2,0-0.4,0-0.6-0.1c-0.4-0.2-0.7-0.5-0.9-0.9c-0.1-0.2-0.1-0.4-0.1-0.6c0-0.2,0.1-0.5,0.1-0.7
	l8.2-21c0.3-0.9,1.2-1.3,2-1.1c0.5,0.2,0.9,0.6,1.1,1.1l8.2,21c0.1,0.2,0.1,0.4,0.2,0.7c0,0.4-0.2,0.8-0.4,1.1
	c-0.1,0.2-0.3,0.3-0.5,0.3c-0.2,0.1-0.4,0.1-0.6,0.1c-0.7,0-1.3-0.4-1.5-1l-6.8-17.3L30.9,53.9z"/>
</svg>
