<?xml version="1.0" encoding="UTF-8"?>
<svg xmlns="http://www.w3.org/2000/svg" xmlns:xlink="http://www.w3.org/1999/xlink" width="128pt" height="128pt" viewBox="0 0 128 128" version="1.1">
<g id="surface1">
<path style=" stroke:none;fill-rule:nonzero;fill:#FFFFFF;fill-opacity:1;" d="M 74 64 C 74 80.570313 60.570313 94 44 94 C 27.429688 94 14 80.570313 14 64 C 14 47.429688 27.429688 34 44 34 C 60.570313 34 74 47.429688 74 64 Z "/>
<path style=" stroke:none;fill-rule:nonzero;fill:#71C2FF;fill-opacity:1;" d="M 114 64 C 114 80.570313 100.570313 94 84 94 C 67.429688 94 54 80.570313 54 64 C 54 47.429688 67.429688 34 84 34 C 100.570313 34 114 47.429688 114 64 Z "/>
<path style=" stroke:none;fill-rule:nonzero;fill:#FFFFFF;fill-opacity:1;" d="M 54 64 C 54 72.898438 57.898438 80.898438 64 86.398438 C 70.101563 80.898438 74 72.898438 74 64 C 74 55.101563 70.101563 47.101563 64 41.601563 C 57.898438 47.101563 54 55.101563 54 64 Z "/>
<path style=" stroke:none;fill-rule:nonzero;fill:#444B54;fill-opacity:1;" d="M 25 90.199219 C 24.300781 90.199219 23.699219 90 23.101563 89.5 C 15.398438 83.199219 11 73.898438 11 64 C 11 45.800781 25.800781 31 44 31 C 46.101563 31 48.101563 31.199219 50.101563 31.601563 C 51.699219 31.898438 52.800781 33.5 52.5 35.101563 C 52.199219 36.699219 50.601563 37.800781 49 37.5 C 47.398438 37.199219 45.699219 37 44 37 C 29.101563 37 17 49.101563 17 64 C 17 72.101563 20.601563 79.699219 26.898438 84.898438 C 28.199219 86 28.398438 87.800781 27.300781 89.101563 C 26.699219 89.800781 25.898438 90.199219 25 90.199219 Z "/>
<path style=" stroke:none;fill-rule:nonzero;fill:#444B54;fill-opacity:1;" d="M 84 97 C 82.300781 97 81 95.699219 81 94 C 81 92.300781 82.300781 91 84 91 C 98.898438 91 111 78.898438 111 64 C 111 49.101563 98.898438 37 84 37 C 82.300781 37 81 35.699219 81 34 C 81 32.300781 82.300781 31 84 31 C 102.199219 31 117 45.800781 117 64 C 117 82.199219 102.199219 97 84 97 Z "/>
<path style=" stroke:none;fill-rule:nonzero;fill:#444B54;fill-opacity:1;" d="M 66.199219 84.398438 C 66.101563 84.300781 66.101563 84.199219 66 84.199219 C 60.300781 79 57 71.699219 57 64 C 57 56.300781 60.300781 49 66 43.898438 C 67.199219 42.800781 67.300781 40.898438 66.199219 39.699219 C 65.101563 38.5 63.199219 38.398438 62 39.5 C 55 45.699219 51 54.601563 51 64 C 51 72.199219 54.101563 80.101563 59.5 86.101563 C 56.898438 87.898438 54.101563 89.199219 51.101563 90.101563 C 49.5 90.5 48.601563 92.199219 49 93.800781 C 49.398438 95.101563 50.601563 96 51.898438 96 C 52.199219 96 52.398438 96 52.699219 95.898438 C 57.601563 94.601563 62.199219 92.101563 66.101563 88.601563 C 66.199219 88.5 66.300781 88.5 66.300781 88.398438 C 67.300781 87.199219 67.199219 85.5 66.199219 84.398438 Z "/>
</g>
</svg>
